<svg xmlns="http://www.w3.org/2000/svg" width="16" height="16" viewBox="0 0 16 16">
  <g fill="none" stroke="#C792EA" stroke-width="1.2" stroke-linecap="round" stroke-linejoin="round">
    <!-- 花括号左 -->
    <path d="M4.2 2.2c-1 0-1.7.8-1.7 1.8v1.2c0 .7-.4 1.3-1 1.6  .6.3 1 .9 1 1.6v1.2c0 1 .7 1.8 1.7 1.8"/>
    <!-- 花括号右 -->
    <path d="M11.8 2.2c1 0 1.7.8 1.7 1.8v1.2c0 .7.4 1.3 1 1.6-.6.3-1 .9-1 1.6v1.2c0 1-.7 1.8-1.7 1.8"/>
    <!-- 音符杆 -->
    <path d="M7 3v6.4A1.9 1.9 0 1 1 5.8 7.9"/>
    <!-- 音符第二杆 -->
    <path d="M9.8 3v5.2"/>
    <!-- 连接横梁 -->
    <path d="M7 3.2h2.8"/>
  </g>
</svg>

